# AST/ASF file generated using VICON BodyLanguage
# -----------------------------------------------
:version 1.10
:name VICON
:units
  mass 1.0
  length 0.45
  angle deg
:documentation
   .ast/.asf automatically generated from VICON data using
   VICON BodyBuilder and BodyLanguage model FoxedUp or BRILLIANT.MOD
:root
   order TX TY TZ RX RY RZ
   axis XYZ
   position 0 0 0  
   orientation 0 0 0 
:bonedata
  begin
     id 1 
     name lhipjoint
     direction 0.671379 -0.66392 0.329334 
     length 2.38647 
     axis 0 0 0  XYZ
  end
  begin
     id 2 
     name lfemur
     direction 0.34202 -0.939693 0  
     length 6.48179  
     axis 0 0 20  XYZ
    dof rx ry rz
    limits (-160.0 20.0)
           (-70.0 70.0)
           (-60.0 70.0)
  end
  begin
     id 3 
     name ltibia
     direction 0.34202 -0.939693 0   
     length 6.86524   
     axis 0 0 20   XYZ
    dof rx
    limits (-10.0 170.0)
  end
  begin
     id 4 
     name lfoot
     direction 0.204886 -0.562919 0.800715   
     length 1.73031   
     axis -90 7.62852e-016 20   XYZ
    dof rx rz
    limits (-45.0 90.0)
           (-70.0 20.0)
  end
  begin
     id 5 
     name ltoes
     direction 1.53548e-011 -4.21841e-011 1   
     length 0.828161   
     axis -90 7.62852e-016 20   XYZ
    dof rx
    limits (-90.0 20.0)
  end
  begin
     id 6 
     name rhipjoint
     direction -0.662732 -0.670855 0.332775   
     length 2.3618  
     axis 0 0 0  XYZ 
  end
  begin
     id 7 
     name rfemur
     direction -0.34202 -0.939693 0   
     length 6.3025   
     axis 0 0 -20   XYZ
    dof rx ry rz
    limits (-160.0 20.0)
           (-70.0 70.0)
           (-70.0 60.0)
  end
  begin
     id 8 
     name rtibia
     direction -0.34202 -0.939693 0   
     length 6.8732   
     axis 0 0 -20   XYZ
    dof rx
    limits (-10.0 170.0)
 end
 begin
     id 9 
     name rfoot
     direction -0.173856 -0.477665 0.861168   
     length 1.54784  
     axis -90 -7.62852e-016 -20   XYZ
    dof rx rz
    limits (-45.0 90.0)
           (-20.0 70.0)
  end
  begin
     id 10 
     name rtoes
     direction -1.53562e-011 -4.21802e-011 1   
     length 0.759618   
     axis -90 -7.62852e-016 -20   XYZ
    dof rx
    limits (-90.0 20.0)
  end
  begin
     id 11 
     name lowerback
     direction -0.0278357 0.999497 -0.0151789   
     length 1.97203   
     axis 0 0 0   XYZ
    dof rx ry rz
    limits (-20.0 45.0)
           (-30.0 30.0)
           (-30.0 30.0)
  end
  begin
     id 12 
     name upperback
     direction -0.00360622 0.997542 0.0699804   
     length 1.94709   
     axis 0 0 0   XYZ
    dof rx ry rz
    limits (-20.0 45.0)
           (-30.0 30.0)
           (-30.0 30.0)
  end
  begin
     id 13 
     name thorax
     direction 0.00907706 0.997048 0.0762461   
     length 1.95722   
     axis 0 0 0   XYZ
    dof rx ry rz
    limits (-20.0 45.0)
           (-30.0 30.0)
           (-30.0 30.0)
  end
  begin
     id 14 
     name lowerneck
     direction -0.0481835 0.99872 -0.0153927   
     length 1.63078   
     axis 0 0 0   XYZ
    dof rx ry rz
    limits (-20.0 45.0)
           (-30.0 30.0)
           (-30.0 30.0)
  end
  begin
     id 15 
     name upperneck
     direction 0.0859716 0.979226 -0.183644   
     length 1.62591   
     axis 0 0 0   XYZ
    dof rx ry rz
    limits (-20.0 45.0)
           (-30.0 30.0)
           (-30.0 30.0)
  end
  begin
     id 16
     name head
     direction 0.0324821 0.997629 -0.0606773  
     length 1.64811  
     axis 0 0 0   XYZ
    dof rx ry rz
    limits (-20.0 45.0)
           (-30.0 30.0)
           (-30.0 30.0)
  end
  begin
     id 17 
     name lclavicle
     direction 0.939609 0.311019 0.142835  
     length 3.70647  
     axis 0 0 0   XYZ
    dof ry rz
    limits (-20.0 10.0)
           (0.0 20.0)
  end
  begin
     id 18 
     name lhumerus
     direction 1 -4.48963e-011 -1.59838e-027   
     length 4.59207   
     axis 180 -30 -90   XYZ
    dof rx ry rz
    limits (-60.0 90.0)
           (-90.0 90.0)
           (-90.0 90.0)
  end
  begin
     id 19
     name lradius
     direction 1 -4.48957e-011 -1.3483e-026   
     length 2.98109   
     axis 180 -30 -90   XYZ
    dof rx
    limits (-10.0 170.0)
  end
  begin
     id 20
     name lwrist
     direction 1 -4.48954e-011 -3.11579e-026   
     length 1.49055   
     axis 2.00652e-014 90 90   XYZ
    dof ry
    limits (-180.0 0.0)
 end
  begin
     id 21 
     name lhand
     direction 1 -4.4911e-011 -6.23158e-026   
     length 0.480203   
     axis 3.97628e-014 90 90   XYZ
    dof rx rz
    limits (-90.0 90.0)
           (-45.0 45.0)
  end
  begin
     id 22 
     name lfingers
     direction 1 -4.48893e-011 -1.24632e-025   
     length 0.387152   
     axis 7.95256e-014 90 90   XYZ
    dof rx
    limits (0.0 90.0)
  end
  begin
     id 23
     name lthumb
     direction 0.707107 -6.35013e-011 0.707107   
     length 0.555875   
     axis -90 45 2.85299e-015   XYZ
    dof rx rz
    limits (-45.0 45.0)
           (-45.0 45.0)
  end
  begin
     id 24 
     name rclavicle
     direction -0.950396 0.30392 0.0661859   
     length 3.70894  
     axis 0 0 0   XYZ 
    dof ry rz
    limits (-10.0 20.0)
           (-20.0 0.0)
  end
  begin
     id 25 
     name rhumerus
     direction -1 -4.48957e-011 -2.96677e-027  
     length 4.76508   
     axis 180 30 90   XYZ
    dof rx ry rz
    limits (-90.0 60.0)
           (-90.0 90.0)
           (-90.0 90.0)
  end
  begin
     id 26 
     name rradius
     direction -1 -4.48974e-011 -1.44501e-026   
     length 2.78902   
     axis 180 30 90   XYZ
    dof rx
    limits (-10.0 170.0)
  end
  begin
     id 27 
     name rwrist
     direction -1 -4.48978e-011 -3.11579e-026   
     length 1.39451   
     axis 2.00652e-014 -90 -90   XYZ
    dof ry
    limits (-180.0 0.0)
  end
  begin
     id 28
     name rhand
     direction -1 -4.48956e-011 -6.23158e-026   
     length 0.721303   
     axis 3.97628e-014 -90 -90   XYZ
    dof rx rz
    limits (-90.0 90.0)
           (-45.0 45.0)
  end
  begin
     id 29
     name rfingers
     direction -1 -4.4899e-011 -1.24632e-025   
     length 0.581533   
     axis 7.95256e-014 -90 -90   XYZ
    dof rx
    limits (0.0 90.0)
  end
  begin
     id 30
     name rthumb
     direction -0.707107 -6.34911e-011 0.707107   
     length 0.834968   
     axis -90 -45 -2.85299e-015   XYZ
    dof rx rz
    limits (-45.0 45.0)
           (-45.0 45.0)
  end
:hierarchy
  begin
    root lhipjoint rhipjoint lowerback
    lhipjoint lfemur
    lfemur ltibia
    ltibia lfoot
    lfoot ltoes
    rhipjoint rfemur
    rfemur rtibia
    rtibia rfoot
    rfoot rtoes
    lowerback upperback
    upperback thorax
    thorax lowerneck lclavicle rclavicle
    lowerneck upperneck
    upperneck head
    lclavicle lhumerus
    lhumerus lradius
    lradius lwrist
    lwrist lhand lthumb
    lhand lfingers
    rclavicle rhumerus
    rhumerus rradius
    rradius rwrist
    rwrist rhand rthumb
    rhand rfingers
  end

#!OML:ASF I:\salsa\salsa 7_09\Patient 1\Session 1\dancerfemale.ASF
:FULLY-SPECIFIED
:DEGREES
1
root 25.2234 15.8771 -0.267944 -84.2318 -87.9288 88.7832
lowerback -1.42929 3.08679 -9.86327
upperback -4.51491 3.98474 1.11599
thorax -4.71807 2.37421 6.56976
lowerneck 3.36857 -6.30911 -10.5334
upperneck 3.95036 -9.16929 11.0349
head 1.61033 -4.69207 4.91696
rclavicle -1.31074e-014 -1.72446e-014
rhumerus -40.6733 -16.3185 -84.3663
rradius 46.316
rwrist 10.471
rhand -8.09137 50.1725
rfingers 7.12502
rthumb 17.8209 20.9691
lclavicle -1.31074e-014 -1.72446e-014
lhumerus -57.3565 32.0622 57.5411
lradius 60.3586
lwrist -82.3878
lhand -10.9173 38.313
lfingers 7.12502
lthumb 15.1001 67.7422
rfemur -15.5663 0.896953 12.4279
rtibia 30.8599
rfoot -23.0376 -11.8597
rtoes -19.9799
lfemur -13.3176 1.74205 -27.8247
ltibia 31.7876
lfoot -26.7403 5.61513
ltoes -13.0824
2
root 25.2374 15.8677 -0.259531 -78.6832 -87.8043 82.7254
lowerback -0.959367 3.05693 -9.82977
upperback -4.31128 3.91159 1.06438
thorax -4.74594 2.33134 6.48036
lowerneck 3.5828 -6.32918 -10.8876
upperneck 3.71417 -9.22533 11.4225
head 1.54582 -4.72965 5.10179
rclavicle 3.33958e-014 1.92821e-014
rhumerus -40.5609 -16.3037 -84.5284
rradius 46.1941
rwrist 10.2729
rhand -8.06423 50.3857
rfingers 7.12502
rthumb 17.847 21.1847
lclavicle 3.33958e-014 1.92821e-014
lhumerus -57.3849 32.26 57.7643
lradius 66.1814
lwrist -96.4097
lhand -5.56222 38.0484
lfingers 7.12502
lthumb 20.2532 67.0125
rfemur -15.0661 0.725957 12.2788
rtibia 30.9938
rfoot -23.1159 -11.8042
rtoes -19.8769
lfemur -12.8434 1.48312 -27.9744
ltibia 31.8358
lfoot -26.7319 5.73796
ltoes -12.9584
3
root 25.2552 15.8572 -0.252521 -74.081 -87.7498 77.5961
lowerback -0.369311 3.05168 -9.73146
upperback -4.15118 3.85895 1.0534
thorax -4.89116 2.30411 6.38929
lowerneck 3.77943 -6.34039 -11.2536
upperneck 3.52064 -9.27177 11.7955
head 1.49597 -4.76251 5.2835
rclavicle -1.4679e-014 -5.46658e-016
rhumerus -40.4485 -16.3422 -84.6534
rradius 46.0189
rwrist 10.0187
rhand -8.07292 50.5791
rfingers 7.12502
rthumb 17.8387 21.3773
lclavicle -1.4679e-014 -5.46658e-016
lhumerus -57.2294 32.1109 58.432
lradius 72.1351
lwrist -108.464
lhand -0.0706731 37.1279
lfingers 7.12502
lthumb 25.5227 65.4384
rfemur -14.5601 0.668366 12.24
rtibia 31.0966
rfoot -23.1915 -11.8168
rtoes -19.698
lfemur -12.4223 1.27422 -28.0202
ltibia 31.976
lfoot -26.7727 5.84912
ltoes -12.9966
4
root 25.2709 15.8462 -0.245763 -69.7946 -87.7042 72.808
lowerback 0.220045 3.03966 -9.56286
upperback -4.03572 3.79533 1.0152
thorax -5.07451 2.27049 6.23012
lowerneck 3.78736 -6.33676 -11.7311
upperneck 3.64302 -9.32229 12.3514
head 1.58347 -4.79347 5.52748
rclavicle -4.43569e-014 -1.4561e-014
rhumerus -40.3669 -16.5989 -84.6266
rradius 45.7126
rwrist 10.2472
rhand -7.80791 50.5073
rfingers 7.12502
rthumb 18.0937 21.3288
lclavicle -4.43569e-014 -1.4561e-014
lhumerus -57.1485 32.2394 58.5035
lradius 70.5595
lwrist -104.382
lhand 4.68676 36.4549
lfingers 7.12502
lthumb 30.0712 64.0292
rfemur -14.0812 0.595986 12.2336
rtibia 31.209
rfoot -23.2693 -11.8338
rtoes -19.7158
lfemur -12.0079 1.05744 -28.0435
ltibia 32.1051
lfoot -26.8026 5.94191
ltoes -12.7171
5
root 25.2849 15.8348 -0.23763 -64.8315 -87.6251 67.3733
lowerback 0.759965 2.89858 -9.31139
upperback -3.91164 3.56892 0.985396
thorax -5.18586 2.14911 6.04989
lowerneck 3.67759 -6.2481 -12.4143
upperneck 3.91988 -9.27204 13.0062
head 1.7368 -4.77254 5.83391
rclavicle 2.23012e-015 2.28602e-015
rhumerus -40.1771 -16.5257 -84.7696
rradius 45.3457
rwrist 10.4528
rhand -7.6338 50.3084
rfingers 7.12502
rthumb 18.2612 21.1455
lclavicle 2.23012e-015 2.28602e-015
lhumerus -57.4944 32.9365 57.7701
lradius 69.9066
lwrist -101.903
lhand 10.288 35.4921
lfingers 7.12502
lthumb 35.3995 61.9539
rfemur -13.6117 0.494632 12.2109
rtibia 31.3367
rfoot -23.3812 -11.8234
rtoes -19.4258
lfemur -11.6117 0.767272 -28.0879
ltibia 32.2411
lfoot -26.8456 6.06977
ltoes -12.4725
6
root 25.3002 15.8251 -0.23039 -59.0823 -87.5803 61.0785
lowerback 1.32959 2.64399 -9.0997
upperback -3.69308 3.20267 1.1218
thorax -5.20539 1.95821 6.08363
lowerneck 3.34753 -6.03398 -13.685
upperneck 4.31725 -9.0711 14.0165
head 1.98253 -4.67432 6.34804
rclavicle 4.4944e-014 -1.21259e-014
rhumerus -39.7794 -16.1702 -84.815
rradius 44.8925
rwrist 10.8896
rhand -7.23867 49.9568
rfingers 7.12502
rthumb 18.6413 20.83
lclavicle 4.4944e-014 -1.21259e-014
lhumerus -56.7098 32.4398 59.8779
lradius 62.9602
lwrist -81.811
lhand -19.1175 42.3147
lfingers 7.12502
lthumb 7.19177 72.1725
rfemur -13.0688 0.515107 12.2735
rtibia 31.4871
rfoot -23.5742 -11.8698
rtoes -18.7739
lfemur -11.1272 0.463496 -28.052
ltibia 32.3571
lfoot -26.9047 6.23082
ltoes -12.5287
